<svg version="1.2" xmlns="http://www.w3.org/2000/svg" viewBox="0 0 2637 942" width="1000" height="357"><style>.a{fill:#9fbfc7}.b{fill:#05a5c0}.c{fill:#5797a6}</style><path fill-rule="evenodd" class="a" d="m528.6 139c69.9-5.1 136.1 13.5 190.7 48.9-46.4-23.4-99.6-35-155.3-30.9-163.9 11.9-287.1 154.4-275.1 318.3 11.9 163.8 154.4 287 318.3 275.1q7.6-0.6 15-1.5c-15.8 3.7-32 6.2-48.7 7.5-170.5 12.3-318.7-115.8-331.1-286.3-12.4-170.5 115.7-318.7 286.2-331.1z"/><path fill-rule="evenodd" class="b" d="m396.3 135.1c72.2-26.5 147.6-27 215.9-6.2-56.1-10.7-115.7-6.7-173.1 14.5-169.1 62.2-255.7 249.8-193.4 418.9 62.2 169.2 249.8 255.8 418.9 193.5q7.8-2.8 15.4-6.1c-15.5 8.7-31.9 16.3-49.1 22.6-175.9 64.8-371-25.3-435.8-201.3-64.8-175.9 25.3-371.1 201.2-435.9z"/><path fill-rule="evenodd" class="c" d="m257.2 168.5c68.5-48.3 147.8-70.1 225.6-67.5-62.1 4.6-123.7 25.6-178.2 64.1-160.6 113.3-198.9 335.3-85.6 495.9 113.2 160.6 335.2 198.9 495.8 85.7q7.4-5.3 14.5-10.8c-13.8 13.5-29 26.1-45.3 37.6-167 117.8-398 77.9-515.9-89.1-117.8-167.1-77.9-398.1 89.1-515.9z"/><path fill-rule="evenodd" class="c" d="m464 589c-2.4 10-0.3 51.3 2 64 2.3 12.7 6.4 5.6 6-2-7.6-73.5 31.6-146 34-149 2.4-3 1.8-6.8-3-5-39.3 15.1-74.2-1.3-88 1-13.8 2.3-19.7-2.8-24-7-4.3-4.2-3.3-7.6-5-16-11.4-51 2.4-93.8 5-106 2.6-12.2 3-26 3-26 0 0-1.9-37.9-2-38-11.8-8-8.5-21.9-8-24 0.5-2.1 1.5-2.3-2-7-3.5-4.7-1-11-1-11 0 0 16-18.6 18-20 2-1.4 6 0 6 0 0 0 0.5-0.8 4-3 3.5-2.2 9 2 9 2 0 0 5.6 5.9 7 8 1.4 2.1 6.1 1.7 8 0 1.9-1.7 5-1 5-1 0 0 8.8-0.3 9 0 54.7-12.9 272-50.6 278-50 6 0.6 5.7 0.7 11 3 22.9 9.9 48 37 48 37 0 0 6.3 5 2 9-35.7 36.9-58.9-5.3-60-7-4.2-5.2-2-31-2-31 0 0-0.7-3.8-6-3-54.8 7.6-268 48-268 48 0 0-7.7 6.8-10 9-2.3 2.2 0 4 0 4 0 0 2.3 2.4 4 4 1.7 1.6 1 5 1 5 0 0 7.4 9.1 10 13 2.6 3.9 2 5 2 5 0 0 15.6 13.7 33 24 45.1 12.2 115 72.2 119 76 4 3.8 9 4 9 4 0 0 24.4 3.3 28 4 3.6 0.7 6.4 2.4 7 7 0.6 4.6 5 1 5 1 0 0 14-13.8 14-14-2.2-8-3.2-18.6-2-25 11.1-46 42-56 42-56 0 0 32.7-14.2 63-3 51.5 20.9 43.9 82 44 82 5.1 11.7 23.9 46 27 51 3.1 5 1 8 1 8 0 0-1.9 1.5-4 4-2.1 2.5-6 0-6 0 0 0-1.5-1.3-4-2-8.6-2.1-22.7 1.8-28 5-5.3 3.2-9-1-9-1 0 0-15.7-28.5-19-32-3.3-3.5-4.6 1.2-3 3 4.5 5.2 10.5 19.5 12 24 1.5 4.5 0 6 0 6 0 0-7 8.4-9 11-2 2.6-4.5 0.6-7-2-2.5-2.6-3.2 2.7-1 5 37.4 43.1-10 84.2-10 84-40.7 5.5-95.2-18.6-101-22-5.8-3.4-8.6 0.2-3 3 43.9 31.9 74.2 32.9 82 32 7.8-0.9 3 4 3 4 0 0-77 66.1-91 82-14 15.9-12.3 38.5-8 49 4.3 10.5 0.8 30.9-20 14-37.9-34.2-50-89-50-89 0 0-6.7-16.6-7-9 2.9 57.5 43.8 111.9 44 112-105.8 6.1-185.6-57.9-185-58 12.2-44 38-94 38-94 0 0 5.4-4 3 6zm144 146q0 0 0 0 0 0 0 0zm10-245c-56.9-20.6-123.9-103-134-117-10.1-14-27.4-29.4-31-34-3.6-4.6-12.1-4.1-12 3 0.1 7.1 4.4 42.8 4 48-0.4 5.2 3.3 18.9 3 26-0.3 7.1 6 4 6 4 0 0 8-1.7 17-3 9-1.3 22-9.2 27-11 5-1.8 7.9 0.7 10 4 38.6 57.5 111 85 111 85 9.3 2.8 8.6-1-1-5z"/><path class="a" d="m1049 569.3v18.2q-8.7-8.2-18.6-12.2-9.9-4-21-4-21.8 0-33.5 13.4-11.6 13.3-11.6 38.6 0 25.2 11.6 38.7 11.7 13.3 33.5 13.3 11.1 0 21-4 9.9-4 18.6-12.2v18.1q-9.1 6.1-19.2 9.2-10.1 3.1-21.4 3.1-29 0-45.6-17.7-16.7-17.8-16.7-48.5 0-30.7 16.7-48.4 16.6-17.8 45.6-17.8 11.5 0 21.5 3.1 10.2 3 19.1 9.1zm92.8 70.6l-23.5-63.5-23.4 63.5zm-82 47.1l48.7-127.6h19.6l48.6 127.6h-17.9l-11.6-32.7h-57.5l-11.7 32.7zm135.6 0v-127.6h23.2l56.6 106.8v-106.8h16.7v127.6h-23.2l-56.6-106.7v106.7zm226.4-117.7v18.2q-8.7-8.2-18.6-12.2-9.8-4-20.9-4-21.9 0-33.5 13.4-11.6 13.3-11.6 38.6 0 25.2 11.6 38.7 11.6 13.3 33.5 13.3 11.1 0 20.9-4 9.9-4 18.6-12.2v18.1q-9 6.1-19.2 9.2-10.1 3.1-21.3 3.1-29 0-45.7-17.7-16.6-17.8-16.6-48.5 0-30.7 16.6-48.4 16.7-17.8 45.7-17.8 11.4 0 21.5 3.1 10.2 3 19 9.1zm26.7 117.7v-127.6h80.7v14.6h-63.4v37.7h60.7v14.5h-60.7v46.3h64.9v14.5zm171.1-59.8q5.5 1.9 10.7 8 5.3 6.2 10.6 16.9l17.6 34.9h-18.6l-16.3-32.7q-6.3-12.8-12.3-17-5.9-4.2-16.2-4.2h-18.8v53.9h-17.2v-127.6h38.9q21.9 0 32.7 9.2 10.8 9.1 10.8 27.6 0 12-5.7 20-5.5 7.9-16.2 11zm-21.6-53.6h-21.7v45.3h21.7q12.5 0 18.8-5.7 6.5-5.8 6.5-17 0-11.2-6.5-16.9-6.3-5.7-18.8-5.7zm233.8-4.3v18.2q-8.7-8.2-18.6-12.2-9.8-4-20.9-4-21.9 0-33.5 13.4-11.6 13.3-11.6 38.6 0 25.2 11.6 38.7 11.6 13.3 33.5 13.3 11.1 0 20.9-4 9.9-4 18.6-12.2v18.1q-9 6.1-19.2 9.2-10.1 3.1-21.4 3.1-28.9 0-45.6-17.7-16.6-17.8-16.6-48.5 0-30.7 16.6-48.4 16.7-17.8 45.6-17.8 11.5 0 21.6 3.1 10.1 3 19 9.1zm26.7 117.7v-127.6h17.3v113.1h62.1v14.5zm167.6-47.1l-23.5-63.5-23.4 63.5zm-81.9 47.1l48.7-127.6h19.5l48.7 127.6h-18l-11.6-32.7h-57.5l-11.6 32.7zm212-123.4v16.8q-9.9-4.7-18.6-7-8.7-2.3-16.8-2.3-14.1 0-21.8 5.5-7.6 5.5-7.6 15.6 0 8.4 5 12.8 5.2 4.2 19.4 6.9l10.4 2.1q19.3 3.7 28.4 13 9.3 9.2 9.3 24.8 0 18.5-12.5 28.1-12.4 9.6-36.4 9.6-9.1 0-19.3-2.1-10.2-2-21.1-6v-17.8q10.5 5.9 20.6 8.9 10 3 19.8 3 14.8 0 22.8-5.8 8-5.9 8-16.6 0-9.4-5.8-14.7-5.7-5.3-18.9-8l-10.5-2q-19.3-3.9-27.9-12.1-8.6-8.2-8.6-22.8 0-16.9 11.8-26.6 12-9.8 32.9-9.8 9 0 18.3 1.6 9.3 1.7 19.1 4.9zm111.1 0v16.8q-9.9-4.7-18.6-7-8.7-2.3-16.8-2.3-14.1 0-21.8 5.5-7.6 5.5-7.6 15.6 0 8.4 5 12.8 5.2 4.2 19.3 6.9l10.5 2.1q19.3 3.7 28.4 13 9.2 9.2 9.2 24.8 0 18.5-12.4 28.1-12.4 9.6-36.4 9.6-9.1 0-19.3-2.1-10.2-2-21.1-6v-17.8q10.5 5.9 20.5 8.9 10.1 3 19.9 3 14.8 0 22.8-5.8 8-5.9 8-16.6 0-9.4-5.8-14.7-5.7-5.3-18.9-8l-10.5-2q-19.3-3.9-27.9-12.1-8.7-8.2-8.7-22.8 0-16.9 11.9-26.6 12-9.8 32.9-9.8 9 0 18.3 1.6 9.3 1.7 19.1 4.9zm34.6 123.4v-127.6h17.2v127.6zm147.2-117.7v18.2q-8.7-8.2-18.7-12.2-9.8-4-20.9-4-21.9 0-33.5 13.4-11.6 13.3-11.6 38.6 0 25.2 11.6 38.7 11.6 13.3 33.5 13.3 11.1 0 20.9-4 10-4 18.7-12.2v18.1q-9.1 6.1-19.3 9.2-10 3.1-21.3 3.1-29 0-45.7-17.7-16.6-17.8-16.6-48.5 0-30.7 16.6-48.4 16.7-17.8 45.7-17.8 11.4 0 21.5 3.1 10.2 3 19.1 9.1z"/><path class="c" d="m1133.5 464.7v45.3q-15.6 8-32.4 12.1-16.9 4.1-35.2 4.1-54.6 0-86.5-30.4-32-30.6-32-82.9 0-52.5 32-82.9 31.9-30.7 86.5-30.7 18.4 0 35.2 4.1 16.8 4.1 32.4 12.2v45.3q-15.7-10.7-30.9-15.7-15.3-5-32.1-5-30.2 0-47.5 19.3-17.3 19.4-17.3 53.4 0 33.8 17.3 53.1 17.3 19.4 47.5 19.4 16.8 0 32.1-5 15.2-5 30.9-15.7zm103.1-64.4h23.7q17.7 0 25.4-6.6 7.7-6.6 7.7-21.7 0-14.9-7.7-21.4-7.7-6.4-25.4-6.4h-23.7zm16 38.9h-16v82.8h-56.4v-218.7h86.1q43.2 0 63.3 14.5 20.2 14.5 20.2 45.8 0 21.7-10.5 35.6-10.4 14-31.5 20.6 11.6 2.6 20.6 12 9.3 9.2 18.6 28.1l30.7 62.1h-60.1l-26.7-54.3q-8-16.5-16.4-22.5-8.2-6-21.9-6zm305.1 82.8l-13.8-39.8h-88.2l-13.9 39.8h-56.7l81-218.7h67.3l81 218.7zm-57.9-167.4l-30 87h59.9zm178.1 167.4l-81-218.7h56.7l58 161.4 57.9-161.4h56.7l-81 218.7zm177.2 0v-218.7h152.2v42.6h-95.8v40.8h90.1v42.6h-90.1v50.1h99v42.6zm205 0v-218.7h62.9l79.6 150v-150h53.5v218.7h-63l-79.6-150v150z"/></svg>